<svg width="15" height="15" viewBox="0 0 15 15" fill="none" xmlns="http://www.w3.org/2000/svg">
<path d="M12.3877 3.86235L12.3172 3.93277L12.3876 3.86235C12.1045 3.57922 11.6455 3.57922 11.3624 3.86235L5.625 9.5997L3.01265 6.98735L3.01265 6.98735C2.72952 6.70424 2.27048 6.70424 1.98735 6.98735L2.05773 7.05774L1.98735 6.98735C1.70422 7.27047 1.70422 7.72953 1.98735 8.01265L4.67041 10.6957L4.73884 10.6273L4.67041 10.6957C5.19761 11.2229 6.05238 11.223 6.57959 10.6957C6.57959 10.6957 6.57959 10.6957 6.57959 10.6957L12.3876 4.88765L12.3169 4.81694L12.3877 4.88765C12.6708 4.60452 12.6708 4.14548 12.3877 3.86235Z" fill="white" stroke="white" stroke-width="0.2"/>
</svg>
